<svg width="480" height="169" viewBox="0 0 480 169" fill="none" xmlns="http://www.w3.org/2000/svg">
<path d="M461.694 90.0916V110.666H449.646V90.0916L431.262 57H444.874L456.061 78.2788H456.453L467.64 57H480L461.694 90.0916Z" fill="#E4A055"/>
<path d="M414.489 110.666V88.2923H395.949V110.666H383.823V57H395.87V78.2788H414.489V57H426.537V110.666H414.489Z" fill="#E4A055"/>
<path d="M348.235 110.666H336.187V57H362.081C365.002 57 367.688 57.7041 370.139 59.1122C372.643 60.4682 374.624 62.3718 376.085 64.8231C377.545 67.2743 378.275 70.0124 378.275 73.0373V73.5067C378.275 76.4795 377.545 79.2436 376.085 81.7992C374.677 84.3025 372.721 86.2844 370.217 87.7447C367.766 89.205 365.054 89.9352 362.081 89.9352H348.235V110.666ZM348.235 80.4692H359.265C361.247 80.4692 362.89 79.8173 364.194 78.5135C365.497 77.1575 366.149 75.5928 366.149 73.8196V73.3502C366.149 71.5248 365.497 69.9602 364.194 68.6564C362.942 67.3004 361.299 66.6224 359.265 66.6224H348.235V80.4692Z" fill="#E4A055"/>
<path d="M328.678 95.7234C328.678 99.2177 327.844 102.164 326.175 104.563C324.506 106.91 322.289 108.658 319.525 109.805C316.813 110.9 313.841 111.448 310.607 111.448H309.355C305.652 111.448 302.315 110.665 299.342 109.101C296.369 107.536 294.022 105.294 292.301 102.373C290.632 99.4002 289.798 95.8798 289.798 91.8118V89.5431C289.798 85.5273 290.658 82.033 292.379 79.0602C294.1 76.0875 296.421 73.8188 299.342 72.2541C302.315 70.6895 305.652 69.9072 309.355 69.9072H310.607C313.841 69.9072 316.839 70.5852 319.604 71.9412C322.368 73.2451 324.584 75.1748 326.253 77.7303C327.922 80.2337 328.757 83.2065 328.757 86.6486V92.5941H301.376V94.4717C301.376 97.0794 302.132 99.2698 303.644 101.043C305.209 102.764 307.321 103.625 309.981 103.625C312.38 103.625 314.258 102.973 315.614 101.669C317.022 100.313 317.726 98.3311 317.726 95.7234H328.678ZM309.434 77.7303C307.139 77.7303 305.261 78.5387 303.801 80.1555C302.393 81.7722 301.584 83.8323 301.376 86.3357H317.178C317.178 83.6758 316.553 81.5897 315.301 80.0772C314.101 78.5126 312.146 77.7303 309.434 77.7303Z" fill="#E4A055"/>
<path d="M260.34 57C264.773 57 268.789 57.9388 272.388 59.8163C276.038 61.6938 278.933 64.4319 281.071 68.0305C283.209 71.6292 284.279 75.8797 284.279 80.7822V86.8842C284.279 91.7866 283.209 96.0371 281.071 99.6358C278.933 103.234 276.038 105.972 272.388 107.85C268.789 109.728 264.773 110.666 260.34 110.666H240V57H260.34ZM252.126 101.044H260.34C263.678 101.044 266.39 99.9748 268.476 97.8365C270.562 95.646 271.605 92.5689 271.605 88.6052V79.0611C271.605 75.0974 270.562 72.0464 268.476 69.9081C266.39 67.7176 263.678 66.6224 260.34 66.6224H252.126V101.044Z" fill="#E4A055"/>
<path d="M88.0236 0.522388C89.2491 -0.174129 90.7509 -0.17413 91.9764 0.522388L125.957 19.8346C126.632 20.2182 126.632 21.1912 125.956 21.574L114.486 28.0737C113.261 28.7678 111.762 28.7668 110.538 28.0712L91.974 17.521C90.7497 16.8252 89.2498 16.8244 88.0248 17.5189L69.4723 28.0368C68.2489 28.7303 66.7511 28.7305 65.5275 28.0371L54.0828 21.5518C53.4073 21.169 53.4067 20.196 54.0817 19.8124L88.0236 0.522388Z" fill="#E4A055"/>
<path d="M39.5184 30.3246L50.9663 36.7888C51.6422 37.1705 51.6445 38.1433 50.9703 38.5281L33.0584 48.7528C31.7103 49.5223 31.7146 51.4674 33.0661 52.231L50.9161 62.3164C51.5921 62.6983 51.5939 63.6714 50.9194 64.0558L39.5192 70.554C38.2708 71.2656 37.5 72.5921 37.5 74.0291V136.352C37.5 137.887 35.8422 138.849 34.5089 138.089L2.01771 119.55C0.770136 118.839 0 117.512 0 116.076V52.876C0 51.4372 0.772708 50.1093 2.02359 49.3984L35.5753 30.3301C36.7974 29.6355 38.2944 29.6335 39.5184 30.3246Z" fill="#E4A055"/>
<path d="M114.497 72.7866L125.472 79.0057C126.725 79.7159 127.5 81.0452 127.5 82.4858V146.055C127.5 147.502 126.718 148.837 125.454 149.545L91.9644 168.299C90.7448 168.982 89.257 168.979 88.0404 168.291L54.5304 149.333C53.2757 148.623 52.5 147.293 52.5 145.851V81.3203C52.5 80.6001 52.8873 79.9354 53.514 79.5803L65.5029 72.7866C66.7247 72.0942 68.22 72.0933 69.4427 72.7841L88.0323 83.2874C89.2534 83.9773 90.7466 83.9773 91.9677 83.2874L110.557 72.7841C111.78 72.0933 113.275 72.0942 114.497 72.7866Z" fill="#E4A055"/>
<path d="M140.046 30.3141L128.579 36.7888C127.903 37.1705 127.901 38.1433 128.575 38.5281L146.487 48.7528C147.835 49.5223 147.831 51.4674 146.479 52.231L128.629 62.3164C127.953 62.6983 127.951 63.6714 128.626 64.0558L140.026 70.554C141.275 71.2656 142.045 72.5921 142.045 74.0291V136.366C142.045 137.898 143.697 138.861 145.03 138.107L177.969 119.475C179.224 118.765 180 117.435 180 115.993V52.7486C180 51.2981 179.215 49.9613 177.948 49.255L143.96 30.3036C142.743 29.6246 141.259 29.6286 140.046 30.3141Z" fill="#E4A055"/>
<path fill-rule="evenodd" clip-rule="evenodd" d="M89.0118 33.9165L61.5343 49.5327C60.8588 49.9166 60.86 50.8905 61.5365 51.2727L89.0162 66.799C89.6267 67.1439 90.3733 67.1439 90.9839 66.799L118.464 51.2727C119.14 50.8905 119.141 49.9166 118.466 49.5326L90.9882 33.9165C90.3755 33.5682 89.6246 33.5682 89.0118 33.9165ZM89.0118 42.4165L76.5343 49.5078C75.8588 49.8917 75.86 50.8656 76.5365 51.2478L89.0162 58.299C89.6267 58.6439 90.3733 58.6439 90.9839 58.299L103.464 51.2478C104.14 50.8656 104.141 49.8917 103.466 49.5078L90.9882 42.4165C90.3755 42.0682 89.6246 42.0682 89.0118 42.4165Z" fill="#E4A055"/>
</svg>
