<svg width="21" height="27" viewBox="0 0 21 27" fill="none" xmlns="http://www.w3.org/2000/svg">
<path d="M9.12187 18.115L16.5375 10.77L14.6672 8.9175L9.12187 14.41L6.36562 11.68L4.49531 13.5325L9.12187 18.115ZM10.5 26.5C7.45937 25.7417 4.94922 24.0138 2.96953 21.3162C0.989844 18.6187 0 15.6233 0 12.33V4.4L10.5 0.5L21 4.4V12.33C21 15.6233 20.0102 18.6187 18.0305 21.3162C16.0508 24.0138 13.5406 25.7417 10.5 26.5ZM10.5 23.77C12.775 23.055 14.6562 21.625 16.1437 19.48C17.6312 17.335 18.375 14.9517 18.375 12.33V6.1875L10.5 3.2625L2.625 6.1875V12.33C2.625 14.9517 3.36875 17.335 4.85625 19.48C6.34375 21.625 8.225 23.055 10.5 23.77Z" fill="#E4A055"/>
</svg>
