<svg width="29" height="29" viewBox="0 0 29 29" fill="none" xmlns="http://www.w3.org/2000/svg">
<path d="M12.6271 18.7292C13.1104 19.2125 13.7347 19.4491 14.5 19.4391C15.2653 19.429 15.8292 19.1521 16.1917 18.6083L22.9584 8.45833L12.8084 15.225C12.2646 15.5875 11.9776 16.1413 11.9474 16.8865C11.9172 17.6316 12.1438 18.2458 12.6271 18.7292ZM14.5 4.83333C15.6882 4.83333 16.8311 4.99947 17.9287 5.33177C19.0262 5.66406 20.0584 6.16249 21.025 6.82708L18.7292 8.27708C18.0646 7.93472 17.3748 7.67795 16.6599 7.50677C15.945 7.33559 15.225 7.24999 14.5 7.24999C11.8215 7.24999 9.54082 8.19149 7.65783 10.0745C5.77485 11.9575 4.83335 14.2382 4.83335 16.9167C4.83335 17.7625 4.94915 18.5983 5.18075 19.424C5.41235 20.2496 5.7396 21.025 6.16252 21.75H22.8375C23.3007 20.9847 23.638 20.1892 23.8495 19.3635C24.061 18.5378 24.1667 17.6819 24.1667 16.7958C24.1667 16.0708 24.0811 15.366 23.9099 14.6812C23.7387 13.9965 23.482 13.3319 23.1396 12.6875L24.5896 10.3917C25.1938 11.3382 25.6721 12.3451 26.0245 13.4125C26.3769 14.4799 26.5632 15.5875 26.5834 16.7354C26.6035 17.8833 26.4726 18.9809 26.1906 20.0281C25.9087 21.0753 25.4959 22.0722 24.9521 23.0187C24.7306 23.3812 24.4285 23.6632 24.0459 23.8646C23.6632 24.066 23.2604 24.1667 22.8375 24.1667H6.16252C5.7396 24.1667 5.33683 24.066 4.95419 23.8646C4.57155 23.6632 4.26946 23.3812 4.04794 23.0187C3.52433 22.1125 3.12155 21.1509 2.8396 20.1339C2.55766 19.1168 2.41669 18.0444 2.41669 16.9167C2.41669 15.2451 2.73387 13.6793 3.36825 12.2193C4.00262 10.7592 4.8686 9.48038 5.96617 8.38281C7.06374 7.28524 8.34759 6.41927 9.81773 5.78489C11.2879 5.15052 12.8486 4.83333 14.5 4.83333Z" fill="#E4A055"/>
</svg>
