<svg width="26" height="21" viewBox="0 0 26 21" fill="none" xmlns="http://www.w3.org/2000/svg">
<path id="Vector" d="M22.0436 2.18915C24.98 6.54768 26.4302 11.464 25.8881 17.1238C25.8858 17.1477 25.8734 17.1697 25.8539 17.1841C23.6303 18.8325 21.4759 19.8329 19.3517 20.4964C19.3351 20.5014 19.3174 20.5011 19.3011 20.4956C19.2847 20.49 19.2704 20.4793 19.2603 20.4652C18.7696 19.7758 18.3237 19.0491 17.933 18.2859C17.9106 18.241 17.9311 18.1868 17.9772 18.1691C18.6854 17.8997 19.3588 17.5769 20.0065 17.1946C20.0576 17.1645 20.0608 17.0906 20.0137 17.0552C19.8762 16.9522 19.74 16.8439 19.6097 16.7356C19.5853 16.7156 19.5525 16.7117 19.5249 16.7251C15.3197 18.6855 10.7132 18.6855 6.45829 16.7251C6.43067 16.7127 6.39784 16.7169 6.37412 16.7366C6.24412 16.8449 6.10762 16.9522 5.97144 17.0552C5.92432 17.0906 5.92822 17.1645 5.97957 17.1946C6.62729 17.5697 7.30069 17.8997 8.00789 18.1704C8.05371 18.1881 8.07549 18.241 8.05274 18.2859C7.67054 19.0501 7.22464 19.7768 6.72479 20.4662C6.70302 20.4941 6.66727 20.5069 6.63347 20.4964C4.51935 19.8329 2.36492 18.8325 0.141278 17.1841C0.122753 17.1697 0.109428 17.1467 0.107478 17.1228C-0.345571 12.2272 0.577752 7.27016 3.94832 2.18816C3.95645 2.17471 3.9688 2.16421 3.9831 2.15798C5.64157 1.38956 7.41834 0.824237 9.27539 0.501383C9.30919 0.496133 9.34299 0.511882 9.36054 0.542068C9.58999 0.952198 9.85226 1.47815 10.0297 1.90796C11.9872 1.60611 13.9752 1.60611 15.9736 1.90796C16.1511 1.48733 16.4043 0.952198 16.6327 0.542068C16.6409 0.527093 16.6535 0.515096 16.6688 0.50779C16.6841 0.500484 16.7012 0.498241 16.7179 0.501383C18.5759 0.825221 20.3527 1.39054 22.0098 2.15798C22.0245 2.16421 22.0365 2.17471 22.0436 2.18915ZM11.0249 11.4974C11.0453 10.0502 10.0001 8.85261 8.68811 8.85261C7.38682 8.85261 6.35169 10.0397 6.35169 11.4974C6.35169 12.9549 7.40729 14.142 8.68811 14.142C9.98974 14.142 11.0249 12.9549 11.0249 11.4974ZM19.664 11.4974C19.6845 10.0502 18.6393 8.85261 17.3276 8.85261C16.0259 8.85261 14.9908 10.0397 14.9908 11.4974C14.9908 12.9549 16.0464 14.142 17.3276 14.142C18.6393 14.142 19.664 12.9549 19.664 11.4974Z" fill="white"/>
</svg>
