<svg width="26" height="21" viewBox="0 0 26 21" fill="none" xmlns="http://www.w3.org/2000/svg">
<path id="Vector" d="M8.17674 20.5C17.9885 20.5 23.3542 12.8062 23.3542 6.1344C23.3542 5.9159 23.3495 5.6984 23.3391 5.4818C24.3832 4.76676 25.2842 3.88142 26 2.8673C25.0442 3.2695 24.0157 3.5402 22.9367 3.66225C24.038 3.0372 24.8835 2.04835 25.2824 0.86965C24.2353 1.4576 23.0897 1.87207 21.8951 2.0952C20.9217 1.1138 19.5359 0.5 18.0014 0.5C15.0555 0.5 12.6667 2.7611 12.6667 5.54825C12.6667 5.9445 12.7136 6.3298 12.8051 6.6995C8.37163 6.48835 4.44035 4.47925 1.80933 1.4243C1.33545 2.19482 1.0862 3.07053 1.08703 3.962C1.08703 5.7137 2.02874 7.26005 3.46085 8.16475C2.61374 8.14026 1.78522 7.92369 1.04497 7.53325C1.04417 7.55445 1.04417 7.5751 1.04417 7.59775C1.04417 10.0429 2.88288 12.0844 5.32371 12.547C4.86529 12.6652 4.39225 12.725 3.91712 12.7247C3.574 12.7247 3.23959 12.6927 2.91459 12.6337C3.59371 14.6398 5.56294 16.0996 7.89771 16.1404C6.07195 17.4949 3.77206 18.3016 1.27241 18.3016C0.847193 18.302 0.422319 18.2786 0 18.2317C2.36082 19.6639 5.16406 20.4997 8.177 20.4997" fill="white"/>
</svg>
